<svg xmlns="http://www.w3.org/2000/svg" width="768" height="200" version="1.0" viewBox="0 0 576 150"><path fill="#2a4236" d="M40.36 83.766v.453c0 1.855.296 3.383.89 4.578.594 1.187 1.3 2.156 2.125 2.906A10.685 10.685 0 0 0 46.828 94c1.344.555 2.703.98 4.078 1.281 1.383.293 2.727.477 4.032.547 1.3.074 2.472.11 3.515.11 2.977 0 5.32-.145 7.031-.438 1.72-.3 3.098-.75 4.141-1.344 1.719-.894 3.004-2.086 3.86-3.578.85-1.488 1.28-2.906 1.28-4.25 0-.883-.32-1.976-.952-3.281-.625-1.313-2.133-2.453-4.516-3.422A30.976 30.976 0 0 0 67 78.906c-.93-.258-1.914-.5-2.953-.719-1.043-.226-2.07-.437-3.078-.625-1-.187-1.84-.351-2.516-.5l-11.281-1.78c-2.156-.302-4.356-.657-6.594-1.063a62.585 62.585 0 0 1-6.484-1.563 33.947 33.947 0 0 1-5.813-2.344c-1.781-.937-3.304-2.113-4.562-3.53-.899-1.04-1.852-2.548-2.86-4.516-1-1.977-1.5-4.645-1.5-8 0-4.54.891-8.446 2.672-11.72 1.79-3.28 4.473-6.034 8.047-8.265a30.67 30.67 0 0 1 6.14-2.906 44.863 44.863 0 0 1 6.548-1.734 47.94 47.94 0 0 1 6.593-.782c2.196-.113 4.301-.172 6.313-.172 7.07 0 12.726.485 16.969 1.454 4.25.968 7.675 2.234 10.28 3.796 2.313 1.344 4.177 2.82 5.595 4.422 1.414 1.594 2.492 3.23 3.234 4.907.75 1.68 1.234 3.34 1.453 4.984.219 1.637.29 3.2.219 4.687H72.64a11.147 11.147 0 0 0-1.172-3.968c-.625-1.227-1.797-2.29-3.516-3.188-.898-.445-1.922-.816-3.078-1.11A27.341 27.341 0 0 0 61.422 44a32.013 32.013 0 0 0-3.36-.281 76.723 76.723 0 0 0-2.624-.063 37.84 37.84 0 0 0-5.813.453c-1.93.293-3.562.852-4.906 1.672-1.274.824-2.242 1.828-2.906 3.016a7.622 7.622 0 0 0-1 3.797c0 1.793.613 3.117 1.843 3.968 1.227.856 2.473 1.508 3.735 1.954.52.23 1.132.437 1.843.625.707.18 1.563.382 2.563.609 1.008.219 2.238.46 3.687.719 1.457.261 3.227.543 5.313.843l8.937 1.454c3.5.593 7.036 1.34 10.61 2.234 3.582.898 6.676 2.309 9.281 4.234 3.27 2.461 5.406 5.235 6.406 8.328 1.008 3.094 1.516 6.016 1.516 8.766 0 4.774-.914 8.684-2.734 11.734-1.825 3.055-3.965 5.477-6.422 7.266-1.043.742-2.309 1.465-3.797 2.172-1.492.71-3.32 1.34-5.485 1.89-2.156.563-4.746 1.032-7.765 1.407-3.012.375-6.528.562-10.547.562-3.125 0-6.309-.093-9.547-.28a69.38 69.38 0 0 1-9.39-1.173 38.19 38.19 0 0 1-8.547-2.734 22.882 22.882 0 0 1-7.032-4.969c-1.418-1.488-2.558-3.05-3.422-4.687-.855-1.645-1.507-3.25-1.953-4.813a23.586 23.586 0 0 1-.828-4.578 50.332 50.332 0 0 1-.172-3.906v-.453ZM183.567 78.406a90.86 90.86 0 0 1-.172 5.25c-.105 1.938-.418 3.95-.937 6.031-.524 2.086-1.325 4.188-2.407 6.313-1.086 2.125-2.554 4.117-4.406 5.969-2.094 2.093-4.371 3.758-6.828 4.984a32.892 32.892 0 0 1-7.703 2.734 54.87 54.87 0 0 1-8.219 1.172c-2.793.188-5.527.282-8.203.282-2.68 0-5.418-.094-8.219-.282a54.737 54.737 0 0 1-8.203-1.172 33.145 33.145 0 0 1-7.703-2.734c-2.461-1.226-4.73-2.89-6.813-4.984-1.867-1.852-3.34-3.844-4.421-5.969-1.086-2.125-1.887-4.227-2.407-6.313-.523-2.082-.84-4.093-.953-6.03a97.283 97.283 0 0 1-.156-5.25V30.921h20.547v45.36c0 .898.02 1.96.062 3.187.04 1.23.207 2.496.5 3.797.301 1.304.75 2.605 1.344 3.906a11.868 11.868 0 0 0 2.453 3.515 10.186 10.186 0 0 0 3.344 2.407c1.27.562 2.535.996 3.797 1.297 1.27.293 2.5.476 3.687.546 1.196.075 2.243.11 3.14.11.895 0 1.938-.035 3.126-.11a22.036 22.036 0 0 0 3.687-.546c1.27-.301 2.52-.735 3.75-1.297 1.227-.563 2.364-1.364 3.407-2.407a11.94 11.94 0 0 0 2.453-3.515 17.84 17.84 0 0 0 1.281-3.906c.258-1.301.426-2.567.5-3.797.082-1.227.125-2.29.125-3.188v-45.36h20.547ZM218.082 30.922v78.203H197.52V30.922ZM226.119 46.562v-15.64h75.078v15.64h-27.265v62.563h-20.547V46.562ZM329.45 68.125h18.546c.97 0 2.008-.035 3.125-.11a20.224 20.224 0 0 0 3.344-.5 20.805 20.805 0 0 0 3.188-1c1.007-.413 1.847-.956 2.515-1.624.82-.82 1.508-1.922 2.063-3.297.562-1.383.844-2.969.844-4.75 0-1.938-.356-3.555-1.063-4.86-.71-1.3-1.621-2.363-2.734-3.187-.375-.3-1.328-.75-2.86-1.344-1.523-.594-3.922-.89-7.203-.89H329.45Zm21.328-37.203c2.687 0 5.238.078 7.656.234 2.426.149 4.734.465 6.922.953a28.449 28.449 0 0 1 6.203 2.11c1.937.93 3.766 2.172 5.484 3.734 1.489 1.418 2.719 2.89 3.688 4.422a20.292 20.292 0 0 1 2.234 4.75c.52 1.637.867 3.258 1.047 4.86.188 1.605.281 3.152.281 4.64 0 3.125-.414 6.293-1.234 9.5-.813 3.2-2.524 6.21-5.125 9.031-1.793 1.938-3.75 3.45-5.875 4.531a29.411 29.411 0 0 1-6.813 2.47c-2.418.554-4.949.886-7.593 1-2.649.105-5.383.155-8.203.155h-20v25.813h-20.563V30.922ZM441.37 79.86l-12.062-29.282-11.844 29.281Zm-35.75 29.265h-21.437l35.078-78.203h20.219l35.078 78.203h-21.453l-6.813-15.86h-33.844Zm0 0"/><path fill="#2a4236" d="M536.319 30.922h23.578l-31.172 37.656 31.734 40.547h-26.25l-18.656-26.703-19.328 26.703h-25.031l32.062-40.547-30.5-37.656h25.141l19.219 25.922Zm0 0"/></svg>

